<?xml version="1.0" encoding="utf-8"?>
<svg viewBox="81.278 267.962 1279.248 498.431" xmlns="http://www.w3.org/2000/svg">
  <g transform="matrix(1.944445, 0, 0, 1.944445, 0.000002, 151.193344)">
    <g transform="translate(0.000000,347.000000) scale(0.100000,-0.100000)" fill="#000000" stroke="none">
      <path d="M3680 2864 c-203 -19 -492 -85 -615 -139 -16 -7 -70 -29 -120 -49 -84 -33 -255 -119 -335 -169 -112 -68 -320 -212 -391 -269 l-34 -28 30 11 c16 5 34 14 40 19 5 4 39 20 75 35 64 27 128 56 340 158 282 134 342 153 600 187 158 20 500 29 500 12 0 -18 -172 -222 -251 -297 -102 -97 -177 -148 -249 -169 -91 -26 -303 -36 -780 -36 -672 0 -1155 -22 -1371 -61 -173 -31 -341 -92 -448 -163 -130 -87 -230 -227 -247 -346 l-6 -45 49 75 c75 115 175 204 303 269 71 37 236 88 325 100 177 25 511 34 1165 30 1832 -9 2108 -2 2665 66 l110 14 -195 -5 c-300 -8 -1390 20 -1390 35 0 6 237 244 317 318 43 41 183 142 225 164 73 37 149 59 206 59 57 0 438 -75 582 -114 47 -13 139 -38 205 -56 66 -18 125 -36 130 -40 6 -4 37 -15 70 -25 151 -43 275 -145 344 -282 38 -76 47 -71 -244 -123 -477 -85 -1071 -119 -2083 -121 l-607 -1 120 -18 c66 -10 154 -23 195 -29 359 -52 1086 -76 1550 -51 206 11 501 36 600 50 325 47 492 73 590 91 432 79 446 80 478 46 46 -49 65 -115 70 -243 9 -225 -24 -340 -140 -497 -29 -39 -58 -91 -64 -115 -13 -52 -20 -53 123 24 102 54 103 56 136 122 36 72 70 167 87 246 9 40 7 74 -10 180 -11 72 -24 174 -29 228 -7 82 -14 107 -45 170 -21 40 -46 80 -57 89 -10 9 -49 22 -86 28 -78 14 -303 87 -390 127 -140 64 -399 188 -408 194 -5 5 -75 37 -155 73 -243 108 -511 184 -860 242 -178 29 -467 43 -620 29z" style="stroke-width: 12; stroke-opacity: 0.62; fill: rgb(255, 255, 255); stroke: rgba(0, 0, 0, 0);"/>
      <path d="M2448 1775 c-60 -15 -130 -48 -213 -101 -80 -51 -87 -69 -14 -35 251 116 518 59 657 -140 77 -110 86 -147 90 -387 l4 -212 61 5 c239 22 1394 121 1888 162 l196 17 7 84 c3 46 14 114 23 150 24 97 93 230 152 295 49 52 157 125 209 142 49 15 11 16 -47 1 -81 -21 -205 -85 -264 -137 -111 -98 -199 -260 -226 -414 l-7 -40 -169 -12 c-178 -12 -1621 -103 -1642 -103 -10 0 -13 24 -13 87 0 47 -5 116 -11 152 -15 83 -104 271 -156 327 -51 56 -149 121 -220 146 -75 27 -225 33 -305 13z" style="stroke-width: 12; stroke-opacity: 0.62; fill: rgb(255, 255, 255); stroke: rgba(0, 0, 0, 0);"/>
      <path d="M5473 1621 c-101 -40 -182 -124 -224 -231 -17 -42 -22 -77 -23 -150 -1 -115 19 -180 78 -260 51 -70 66 -83 146 -122 55 -28 74 -33 140 -33 93 1 165 31 240 101 156 146 167 432 22 594 -68 77 -164 120 -264 119 -42 -1 -91 -8 -115 -18z" style="stroke-width: 12; stroke-opacity: 0.62; fill: rgb(255, 255, 255); stroke: rgba(0, 0, 0, 0);"/>
      <path d="M2338 1575 c-87 -24 -199 -114 -255 -205 -12 -19 -34 -71 -48 -115 -24 -71 -27 -91 -23 -180 4 -84 10 -113 38 -185 29 -72 45 -96 105 -156 97 -97 160 -127 281 -132 70 -3 105 0 145 13 113 37 226 140 273 247 27 61 56 181 56 232 0 42 -25 155 -47 215 -42 111 -164 228 -276 263 -68 21 -179 23 -249 3z" style="stroke-width: 12; stroke-opacity: 0.62; fill: rgb(255, 255, 255); stroke: rgba(0, 0, 0, 0);"/>
      <path d="M 5182.99755859375 306.11187744140625" style="fill-opacity: 1; stroke-opacity: 0.62; stroke-width: 12; paint-order: stroke; fill: rgb(255, 255, 255); stroke: rgba(0, 0, 0, 0);"/>
      <path d="M 6996.990234375 759.6099853515625" style="fill-opacity: 1; stroke-opacity: 0.62; stroke-width: 12; paint-order: stroke; fill: rgb(255, 255, 255); stroke: rgba(0, 0, 0, 0);"/>
    </g>
  </g>
</svg>